<svg width="400" height="419" viewBox="0 0 400 419" fill="none" xmlns="http://www.w3.org/2000/svg">
<path fill-rule="evenodd" clip-rule="evenodd" d="M208.13 0.00860056C255.085 0.774567 274.168 61.8691 309.322 93.0067C339.738 119.948 398.984 129.328 399.988 169.947C401.081 214.216 329.906 225.384 313.611 266.558C299.185 303.01 338.682 349.026 316.362 381.254C294.071 413.439 247.277 419.442 208.13 418.858C169.353 418.28 135.884 397.312 102.218 378.061C64.0647 356.244 2.57618 343.767 0.0737724 299.887C-2.64413 252.229 70.51 237.222 91.7483 194.471C107.799 162.162 85.9842 120.621 104.51 89.6657C128.554 49.4907 161.316 -0.75507 208.13 0.00860056Z" fill="#6E18B1"/>
<g clip-path="url(#clip0_851_4)">
<path d="M131.786 91H20.2621C16.4809 91.0043 12.8557 92.5082 10.182 95.182C7.50823 97.8558 6.00425 101.481 6 105.262V236.215C6.00425 239.996 7.50823 243.621 10.182 246.295C12.8557 248.969 16.4809 250.473 20.2621 250.477H131.786C135.568 250.473 139.193 248.969 141.867 246.295C144.54 243.621 146.044 239.996 146.049 236.215V105.262C146.044 101.481 144.54 97.8558 141.867 95.182C139.193 92.5082 135.568 91.0043 131.786 91Z" fill="#F2F2F2"/>
<path d="M131.787 95.1058H20.2624C17.5697 95.1088 14.9881 96.1798 13.084 98.0838C11.18 99.9879 10.109 102.569 10.106 105.262V236.215C10.109 238.908 11.18 241.489 13.084 243.393C14.9881 245.297 17.5697 246.368 20.2624 246.371H131.787C134.479 246.368 137.061 245.297 138.965 243.393C140.869 241.489 141.94 238.908 141.943 236.215V105.262C141.94 102.569 140.869 99.9879 138.965 98.0839C137.061 96.1798 134.479 95.1088 131.787 95.1058Z" fill="white"/>
<path d="M115.002 133.183H58.605C57.9751 133.183 57.371 132.933 56.9256 132.488C56.4802 132.042 56.23 131.438 56.23 130.808C56.23 130.178 56.4802 129.574 56.9256 129.129C57.371 128.683 57.9751 128.433 58.605 128.433H115.002C115.314 128.433 115.623 128.495 115.911 128.614C116.199 128.733 116.461 128.908 116.681 129.129C116.902 129.349 117.077 129.611 117.196 129.899C117.316 130.188 117.377 130.496 117.377 130.808C117.377 131.12 117.316 131.429 117.196 131.717C117.077 132.005 116.902 132.267 116.681 132.488C116.461 132.708 116.199 132.883 115.911 133.003C115.623 133.122 115.314 133.183 115.002 133.183Z" fill="#F2F2F2"/>
<path d="M124.799 141.199H58.6048C57.9754 141.198 57.3719 140.948 56.9271 140.502C56.4823 140.057 56.2324 139.453 56.2324 138.824C56.2324 138.195 56.4823 137.591 56.9271 137.146C57.3719 136.7 57.9754 136.45 58.6048 136.449H124.799C125.428 136.45 126.032 136.7 126.477 137.146C126.921 137.591 127.171 138.195 127.171 138.824C127.171 139.453 126.921 140.057 126.477 140.502C126.032 140.948 125.428 141.198 124.799 141.199Z" fill="#F2F2F2"/>
<path d="M115.002 169.106H58.605C57.9751 169.106 57.371 168.855 56.9256 168.41C56.4802 167.965 56.23 167.361 56.23 166.731C56.23 166.101 56.4802 165.497 56.9256 165.051C57.371 164.606 57.9751 164.356 58.605 164.356H115.002C115.314 164.356 115.623 164.417 115.911 164.536C116.199 164.656 116.461 164.831 116.681 165.051C116.902 165.272 117.077 165.534 117.196 165.822C117.316 166.11 117.377 166.419 117.377 166.731C117.377 167.043 117.316 167.351 117.196 167.64C117.077 167.928 116.902 168.189 116.681 168.41C116.461 168.631 116.199 168.806 115.911 168.925C115.623 169.044 115.314 169.106 115.002 169.106Z" fill="#F2F2F2"/>
<path d="M124.799 177.121H58.6048C57.9754 177.121 57.3719 176.87 56.9271 176.425C56.4823 175.98 56.2324 175.376 56.2324 174.746C56.2324 174.117 56.4823 173.513 56.9271 173.068C57.3719 172.623 57.9754 172.372 58.6048 172.371H124.799C125.428 172.372 126.032 172.623 126.477 173.068C126.921 173.513 127.171 174.117 127.171 174.746C127.171 175.376 126.921 175.98 126.477 176.425C126.032 176.87 125.428 177.121 124.799 177.121Z" fill="#F2F2F2"/>
<path d="M115.002 205.028H58.605C57.9751 205.028 57.371 204.778 56.9256 204.332C56.4802 203.887 56.23 203.283 56.23 202.653C56.23 202.023 56.4802 201.419 56.9256 200.974C57.371 200.528 57.9751 200.278 58.605 200.278H115.002C115.314 200.278 115.623 200.339 115.912 200.458C116.2 200.577 116.462 200.752 116.683 200.973C116.904 201.193 117.079 201.455 117.199 201.743C117.318 202.032 117.38 202.341 117.38 202.653C117.38 202.965 117.318 203.274 117.199 203.562C117.079 203.851 116.904 204.113 116.683 204.333C116.462 204.554 116.2 204.729 115.912 204.848C115.623 204.967 115.314 205.028 115.002 205.028Z" fill="#F2F2F2"/>
<path d="M124.799 213.044H58.6048C57.9754 213.043 57.3719 212.793 56.9271 212.347C56.4823 211.902 56.2324 211.298 56.2324 210.669C56.2324 210.039 56.4823 209.436 56.9271 208.99C57.3719 208.545 57.9754 208.294 58.6048 208.294H124.799C125.428 208.294 126.032 208.545 126.477 208.99C126.921 209.436 127.171 210.039 127.171 210.669C127.171 211.298 126.921 211.902 126.477 212.347C126.032 212.793 125.428 213.043 124.799 213.044Z" fill="#F2F2F2"/>
<path d="M45.9717 144.838H26.0133C25.7114 144.838 25.4219 144.717 25.2084 144.504C24.9949 144.29 24.8748 144.001 24.8745 143.699V125.933C24.8748 125.631 24.9949 125.342 25.2084 125.128C25.4219 124.915 25.7114 124.795 26.0133 124.794H45.9717C46.2737 124.795 46.5631 124.915 46.7766 125.128C46.9901 125.342 47.1102 125.631 47.1106 125.933V143.699C47.1102 144.001 46.9901 144.29 46.7766 144.504C46.5631 144.717 46.2737 144.838 45.9717 144.838Z" fill="#E6E6E6"/>
<path d="M45.9717 180.76H26.0133C25.7114 180.76 25.4219 180.64 25.2084 180.426C24.9949 180.213 24.8748 179.923 24.8745 179.621V161.856C24.8748 161.554 24.9949 161.264 25.2084 161.051C25.4219 160.837 25.7114 160.717 26.0133 160.717H45.9717C46.2737 160.717 46.5631 160.837 46.7766 161.051C46.9901 161.264 47.1102 161.554 47.1106 161.856V179.621C47.1102 179.923 46.9901 180.213 46.7766 180.426C46.5631 180.64 46.2737 180.76 45.9717 180.76Z" fill="#E6E6E6"/>
<path d="M45.9717 216.683H26.0133C25.7114 216.682 25.4219 216.562 25.2084 216.349C24.9949 216.135 24.8748 215.846 24.8745 215.544V197.778C24.8748 197.476 24.9949 197.187 25.2084 196.973C25.4219 196.76 25.7114 196.639 26.0133 196.639H45.9717C46.2737 196.639 46.5631 196.76 46.7766 196.973C46.9901 197.187 47.1102 197.476 47.1106 197.778V215.544C47.1102 215.846 46.9901 216.135 46.7766 216.349C46.5631 216.562 46.2737 216.682 45.9717 216.683Z" fill="#E6E6E6"/>
<path d="M230.032 214.85L230.917 207.113L235.353 168.318L236.238 160.58C236.663 156.823 235.58 153.05 233.228 150.09C230.875 147.13 227.444 145.224 223.688 144.79L123.027 133.28C119.27 132.854 115.497 133.937 112.537 136.289C109.577 138.642 107.671 142.073 107.237 145.829L107.235 145.849L101.033 200.079L101.031 200.099C100.606 203.857 101.688 207.629 104.041 210.589C106.394 213.55 109.824 215.456 113.581 215.889L214.242 227.4C217.999 227.825 221.772 226.743 224.732 224.39C227.692 222.037 229.598 218.607 230.032 214.85Z" fill="#E6E6E6"/>
<path d="M225.953 214.384L227.001 205.22L231.111 169.278L232.159 160.114C232.461 157.438 231.691 154.752 230.015 152.643C228.34 150.535 225.897 149.178 223.222 148.869L122.561 137.359C119.885 137.056 117.198 137.827 115.09 139.502C112.982 141.177 111.625 143.621 111.316 146.296L111.314 146.316L105.113 200.546L105.11 200.566C104.808 203.242 105.578 205.928 107.254 208.036C108.929 210.144 111.372 211.501 114.047 211.81L214.708 223.321C217.384 223.624 220.07 222.853 222.178 221.178C224.286 219.502 225.644 217.059 225.953 214.384Z" fill="white"/>
<path d="M209.476 165.212L153.444 158.805C153.134 158.77 152.834 158.674 152.561 158.523C152.288 158.372 152.047 158.168 151.853 157.924C151.659 157.68 151.514 157.4 151.428 157.1C151.342 156.8 151.316 156.486 151.352 156.176C151.387 155.865 151.483 155.565 151.635 155.293C151.786 155.02 151.99 154.779 152.235 154.585C152.479 154.391 152.759 154.247 153.059 154.162C153.36 154.076 153.674 154.05 153.984 154.086L210.016 160.493C210.641 160.565 211.212 160.883 211.603 161.376C211.995 161.869 212.175 162.497 212.103 163.122C212.032 163.748 211.715 164.319 211.222 164.711C210.729 165.103 210.101 165.283 209.476 165.212Z" fill="#E6E6E6"/>
<path d="M218.299 174.289L152.534 166.769C152.224 166.734 151.923 166.638 151.65 166.487C151.377 166.336 151.137 166.132 150.943 165.888C150.748 165.644 150.604 165.363 150.518 165.063C150.432 164.763 150.406 164.449 150.442 164.139C150.477 163.829 150.573 163.529 150.725 163.256C150.876 162.984 151.08 162.743 151.324 162.549C151.569 162.355 151.849 162.211 152.149 162.125C152.449 162.04 152.763 162.014 153.073 162.05L218.839 169.57C219.149 169.605 219.449 169.702 219.721 169.853C219.994 170.004 220.234 170.208 220.428 170.452C220.622 170.696 220.767 170.976 220.852 171.276C220.938 171.576 220.964 171.89 220.929 172.199C220.893 172.509 220.797 172.809 220.646 173.082C220.495 173.355 220.291 173.595 220.047 173.789C219.803 173.983 219.523 174.127 219.223 174.213C218.923 174.299 218.609 174.325 218.299 174.289Z" fill="#E6E6E6"/>
<path d="M216.465 190.173L119.507 179.086C118.881 179.014 118.31 178.696 117.919 178.203C117.527 177.71 117.348 177.082 117.419 176.457C117.491 175.831 117.808 175.26 118.3 174.868C118.793 174.476 119.421 174.296 120.046 174.367L217.005 185.454C217.315 185.489 217.615 185.585 217.888 185.736C218.161 185.887 218.402 186.091 218.596 186.335C218.79 186.579 218.935 186.859 219.021 187.159C219.107 187.459 219.133 187.773 219.097 188.083C219.062 188.393 218.965 188.693 218.814 188.966C218.662 189.239 218.459 189.479 218.214 189.674C217.97 189.868 217.69 190.012 217.39 190.097C217.089 190.183 216.775 190.209 216.465 190.173Z" fill="#E6E6E6"/>
<path d="M215.866 198.172L118.596 187.05C117.971 186.978 117.4 186.66 117.008 186.167C116.617 185.674 116.437 185.046 116.509 184.421C116.58 183.795 116.897 183.224 117.39 182.832C117.882 182.44 118.51 182.26 119.136 182.33L216.406 193.453C217.031 193.525 217.602 193.843 217.994 194.336C218.385 194.829 218.565 195.457 218.493 196.082C218.422 196.708 218.105 197.279 217.612 197.671C217.12 198.063 216.492 198.243 215.866 198.172Z" fill="#E6E6E6"/>
<path d="M214.681 205.778L117.722 194.691C117.412 194.656 117.112 194.56 116.839 194.409C116.566 194.258 116.326 194.054 116.131 193.81C115.937 193.566 115.793 193.285 115.707 192.985C115.621 192.685 115.595 192.371 115.63 192.061C115.666 191.751 115.762 191.451 115.913 191.178C116.065 190.905 116.269 190.665 116.513 190.471C116.757 190.277 117.038 190.133 117.338 190.047C117.638 189.962 117.952 189.936 118.262 189.972L215.221 201.059C215.846 201.131 216.417 201.448 216.809 201.941C217.2 202.434 217.38 203.063 217.308 203.688C217.237 204.313 216.92 204.885 216.427 205.277C215.935 205.669 215.307 205.849 214.681 205.778Z" fill="#E6E6E6"/>
<path d="M214.082 213.778L116.812 202.655C116.186 202.583 115.615 202.265 115.224 201.772C114.833 201.279 114.653 200.651 114.724 200.026C114.796 199.4 115.113 198.829 115.605 198.437C116.098 198.045 116.726 197.865 117.351 197.936L214.622 209.058C214.932 209.093 215.232 209.189 215.505 209.341C215.778 209.492 216.019 209.695 216.213 209.94C216.407 210.184 216.551 210.464 216.637 210.764C216.723 211.064 216.749 211.378 216.714 211.688C216.679 211.998 216.582 212.298 216.431 212.571C216.279 212.844 216.076 213.084 215.831 213.278C215.587 213.472 215.306 213.616 215.006 213.702C214.706 213.788 214.392 213.813 214.082 213.778Z" fill="#E6E6E6"/>
<path d="M139.568 168.949L119.739 166.682C119.439 166.647 119.165 166.495 118.978 166.258C118.79 166.022 118.703 165.721 118.737 165.421L120.756 147.77C120.79 147.47 120.942 147.196 121.179 147.008C121.415 146.821 121.716 146.734 122.016 146.768L141.846 149.035C142.146 149.07 142.419 149.222 142.607 149.459C142.795 149.695 142.882 149.996 142.848 150.296L140.829 167.947C140.795 168.247 140.642 168.521 140.406 168.709C140.17 168.897 139.868 168.983 139.568 168.949Z" fill="#bc3ddb"/>
<path d="M255.704 280.774H190.802C190.723 280.774 190.648 280.743 190.592 280.687C190.537 280.632 190.505 280.556 190.505 280.478C190.505 280.399 190.537 280.324 190.592 280.268C190.648 280.213 190.723 280.181 190.802 280.181H255.704C255.782 280.181 255.858 280.213 255.913 280.268C255.969 280.324 256 280.399 256 280.478C256 280.556 255.969 280.632 255.913 280.687C255.858 280.743 255.782 280.774 255.704 280.774Z" fill="#3F3D56"/>
<path d="M231.333 167.555C231.233 167.949 231.221 168.36 231.297 168.759C231.374 169.158 231.536 169.535 231.774 169.865C232.012 170.194 232.319 170.467 232.674 170.665C233.029 170.863 233.423 170.98 233.828 171.009L235.836 177.034L239.795 176.706L236.84 168.238C236.844 167.554 236.596 166.893 236.145 166.379C235.693 165.865 235.069 165.535 234.39 165.451C233.711 165.366 233.025 165.534 232.462 165.922C231.898 166.31 231.497 166.891 231.333 167.555Z" fill="#FFB8B8"/>
<path d="M234.365 207.007C234.829 207.433 235.397 207.73 236.012 207.866C236.627 208.002 237.267 207.974 237.868 207.784C238.468 207.594 239.008 207.249 239.433 206.783C239.857 206.318 240.151 205.749 240.286 205.133L243.421 190.768C243.957 188.312 243.831 185.757 243.055 183.365L239.386 172.052C239.333 171.889 239.246 171.74 239.13 171.615C239.015 171.489 238.874 171.39 238.716 171.324C238.559 171.258 238.389 171.227 238.218 171.233C238.048 171.238 237.88 171.281 237.728 171.357L235.333 172.556C235.085 172.68 234.888 172.888 234.777 173.142C234.666 173.396 234.648 173.681 234.725 173.947L234.967 174.778C236.974 181.683 237.08 189.002 235.271 195.963L233.321 203.469C233.158 204.098 233.169 204.76 233.352 205.383C233.536 206.006 233.886 206.568 234.365 207.007Z" fill="#6C63FF"/>
<path d="M221.82 277.675L218.432 277.675L216.82 264.607L221.821 264.607L221.82 277.675Z" fill="#FFB8B8"/>
<path d="M216.011 276.707H222.545V280.821H211.897C211.897 280.28 212.003 279.745 212.21 279.246C212.417 278.747 212.72 278.294 213.102 277.912C213.484 277.53 213.937 277.227 214.437 277.02C214.936 276.813 215.471 276.707 216.011 276.707Z" fill="#2F2E41"/>
<path d="M240.081 277.675L236.693 277.675L235.082 264.607L240.082 264.607L240.081 277.675Z" fill="#FFB8B8"/>
<path d="M234.273 276.707H240.807V280.821H230.159C230.159 280.28 230.266 279.745 230.472 279.246C230.679 278.747 230.982 278.294 231.364 277.912C231.746 277.53 232.2 277.227 232.699 277.02C233.198 276.813 233.733 276.707 234.273 276.707Z" fill="#2F2E41"/>
<path d="M230.159 184.775C234.179 184.775 237.438 181.516 237.438 177.496C237.438 173.476 234.179 170.217 230.159 170.217C226.139 170.217 222.88 173.476 222.88 177.496C222.88 181.516 226.139 184.775 230.159 184.775Z" fill="#FFB8B8"/>
<path d="M205.27 224.966C205.321 224.563 205.459 224.176 205.676 223.832C205.893 223.488 206.182 223.196 206.523 222.976C206.865 222.757 207.251 222.614 207.653 222.56C208.056 222.505 208.466 222.539 208.854 222.66L212.921 217.784L216.488 219.533L210.646 226.339C210.4 226.977 209.928 227.503 209.321 227.816C208.713 228.13 208.011 228.21 207.348 228.04C206.685 227.871 206.108 227.465 205.725 226.898C205.342 226.331 205.18 225.644 205.27 224.966Z" fill="#FFB8B8"/>
<path d="M231.931 184.774C233.026 184.798 234.115 184.59 235.124 184.163C236.133 183.736 237.04 183.101 237.786 182.298C238.533 181.495 239.1 180.544 239.453 179.507C239.805 178.469 239.933 177.369 239.83 176.278C239.727 175.187 239.394 174.13 238.853 173.177C238.312 172.224 237.576 171.397 236.692 170.748C235.809 170.1 234.798 169.646 233.727 169.417C232.655 169.187 231.547 169.187 230.476 169.416C228.875 168.444 227.014 167.79 225.149 167.956C223.284 168.122 221.439 169.23 220.741 170.968C220.044 172.706 220.793 174.996 222.528 175.703C223.64 176.156 224.895 175.936 226.082 175.753C227.268 175.571 228.563 175.452 229.595 176.064C230.628 176.676 231.092 178.318 230.167 179.083C229.677 179.505 229.327 180.066 229.164 180.692C229.001 181.318 229.032 181.979 229.253 182.586C229.718 183.788 230.987 184.754 231.931 184.774Z" fill="#2F2E41"/>
<path d="M240.962 224.678L242.253 273.677C242.257 273.841 242.228 274.003 242.166 274.155C242.105 274.306 242.013 274.443 241.896 274.557C241.779 274.671 241.639 274.76 241.487 274.818C241.334 274.875 241.171 274.901 241.007 274.892L236.754 274.675C236.483 274.662 236.224 274.555 236.022 274.373C235.82 274.192 235.686 273.946 235.644 273.678L230.585 241.852C230.563 241.716 230.495 241.592 230.391 241.501C230.288 241.409 230.156 241.357 230.018 241.353C229.88 241.349 229.745 241.392 229.636 241.477C229.527 241.562 229.451 241.681 229.421 241.816L222.573 272.458C222.536 272.622 222.465 272.776 222.365 272.91C222.264 273.045 222.136 273.156 221.989 273.237C221.842 273.318 221.68 273.368 221.512 273.381C221.345 273.395 221.177 273.373 221.019 273.317L216.798 273.059C216.553 272.972 216.344 272.807 216.203 272.591C216.061 272.374 215.994 272.116 216.012 271.858L219.697 224.214L240.962 224.678Z" fill="#2F2E41"/>
<path d="M243.034 201.405C243.746 193.98 238.287 187.263 230.846 186.735C227.64 186.507 222.663 186.426 221.022 190.628C216.08 203.287 224.732 202.979 221.751 213.946C218.77 224.914 216.137 225.542 220.227 226.334C224.318 227.126 242.711 231.801 241.956 224.082C241.491 219.337 242.324 208.812 243.034 201.405Z" fill="#6C63FF"/>
<path d="M222.49 189.34C223.078 189.113 223.715 189.045 224.337 189.142C224.959 189.24 225.545 189.5 226.035 189.896C226.525 190.292 226.901 190.81 227.127 191.398C227.352 191.987 227.419 192.624 227.319 193.246L224.996 207.765C224.599 210.247 223.549 212.58 221.954 214.524L214.409 223.718C214.3 223.85 214.165 223.957 214.011 224.031C213.858 224.106 213.69 224.147 213.519 224.151C213.349 224.155 213.179 224.122 213.023 224.054C212.866 223.987 212.726 223.886 212.611 223.759L210.819 221.769C210.634 221.563 210.526 221.298 210.516 221.021C210.505 220.744 210.592 220.472 210.761 220.252L211.289 219.567C215.678 213.871 218.447 207.094 219.304 199.954L220.227 192.254C220.305 191.608 220.556 190.996 220.955 190.483C221.353 189.97 221.884 189.575 222.49 189.34Z" fill="#6C63FF"/>
</g>
<defs>
<clipPath id="clip0_851_4">
<rect width="250" height="189.821" fill="white" transform="translate(6 91)"/>
</clipPath>
</defs>
</svg>
