<svg width="50" height="50" viewBox="0 0 50 50" fill="none" xmlns="http://www.w3.org/2000/svg">
<rect width="50" height="50" rx="25" fill="#8525CF"/>
<g clip-path="url(#clip0_829_4)">
<path d="M6.26676 25.3333L6.13343 25.2667C5.83343 25.1 5.6001 24.85 5.43343 24.5333C5.2001 24.1 5.1001 23.7 5.1001 23.2833L5.13343 23.0667C5.13343 22.7333 5.21676 22.4333 5.36676 22.15L5.5001 21.9C5.56676 21.7667 5.66676 21.65 5.7501 21.5333C5.8501 21.4167 5.86676 21.2667 5.83343 21.1333L5.7501 20.8667C5.6501 20.5333 5.58343 20.2 5.58343 19.8667L5.53343 19.6667C5.53343 19.3 5.63343 18.9333 5.86676 18.6667L6.03343 18.45C6.1501 18.2833 6.33343 18.1833 6.53343 18.1167C6.7001 18.0667 6.81676 17.9 6.83343 17.7L6.86676 17.1333C6.86676 16.6833 7.08343 16.2667 7.41676 15.9667L7.81676 15.6667C7.9001 15.5833 7.98343 15.5 8.0501 15.3667C8.13343 15.2667 8.1501 15.1333 8.13343 15.0333C8.1001 14.8667 8.13343 14.8167 8.21676 14.8C8.48343 14.9 8.6501 14.8667 8.76676 14.7333L8.98343 14.45L9.58343 13.7833C9.7501 13.6167 9.81676 13.3167 9.71676 13.0833L9.51676 12.65C9.48343 12.55 9.51676 12.4333 9.6001 12.4C9.81676 12.4 9.96676 12.4833 10.0334 12.6167L10.1001 12.7333C10.2001 12.9333 10.4334 13.0333 10.6001 12.95C10.9668 12.8167 11.2668 12.7833 11.5501 12.7833H12.0834C12.4501 12.7833 12.7501 12.5333 12.8168 12.15C12.8834 11.6833 13.0501 11.3167 13.2834 11.0667C13.5334 10.7833 13.8168 10.5667 14.1501 10.4C14.5834 10.1667 14.8501 9.83334 14.9334 9.40001C15.0501 8.86668 15.3334 8.48334 15.7168 8.23334L16.9834 7.51668L17.3501 7.30001C17.5668 7.16668 17.7668 7.00001 17.9334 6.80001L18.2668 6.40001C18.4334 6.23334 18.6001 6.11668 18.8001 6.06668C18.9668 6.01668 19.2001 5.98334 19.4001 6.00001L20.0668 6.05001C20.4001 6.05001 20.6668 6.13334 20.9334 6.25001L21.1001 6.33334C21.2668 6.40001 21.4334 6.36668 21.5168 6.25001L21.6668 6.16668L22.3834 5.41668C22.5501 5.25001 22.7501 5.18334 22.9668 5.21668C23.1834 5.25001 23.4001 5.33334 23.6001 5.43334C23.9001 5.60001 24.1501 5.66668 24.4334 5.66668H24.6001C24.9668 5.66668 25.3334 5.71668 25.7001 5.80001L25.9501 5.86668C26.2001 5.93334 26.4501 5.83334 26.6168 5.63334C26.6668 5.55001 26.7834 5.53334 26.8501 5.60001C26.9001 5.63334 26.9168 5.66668 26.9334 5.71668C26.9668 6.05001 27.1668 6.30001 27.4334 6.38334L27.7001 6.46668C27.9834 6.55001 28.2334 6.73334 28.4001 6.96668C28.5668 7.21668 28.7668 7.46668 29.0001 7.63334L29.1668 7.80001C29.3334 7.96668 29.5668 8.03334 29.8001 8.01668H30.7834C31.1834 8.01668 31.5668 8.08334 31.9501 8.25001C32.3168 8.41668 32.7001 8.45001 33.0501 8.31668C33.4168 8.20001 33.8001 8.15001 34.1834 8.20001L34.9001 8.31668C35.2334 8.35001 35.5668 8.51668 35.7668 8.76668L35.8501 8.85001C36.0168 9.01668 36.1834 9.23334 36.3501 9.46668C36.4501 9.68334 36.6834 9.80001 36.9168 9.80001H37.9501C38.2001 9.80001 38.4501 9.85001 38.6501 9.96668C38.8668 10.1333 39.0501 10.3 39.2168 10.4667L39.3834 10.6833C39.5834 10.9167 39.6834 11.2333 39.6668 11.5667C39.6668 11.8333 39.8668 12.0667 40.1334 12.0667L40.4668 12.1C40.7001 12.1 40.9001 12.2667 41.0168 12.4833L41.1834 12.8167L41.6168 13.7833C41.6834 13.95 41.7001 14.1167 41.6834 14.25C41.6834 14.4167 41.7334 14.55 41.8501 14.6167L42.0168 14.7333C42.2334 14.9 42.3501 15.15 42.3168 15.4333L42.2001 16.2167L42.1668 16.55C42.1334 16.7167 42.2168 16.9333 42.3668 17.05C42.6168 17.2167 42.7334 17.4333 42.7501 17.6833V18.0167C42.7501 18.1833 42.7168 18.3833 42.5834 18.5167C42.4834 18.65 42.4168 18.8167 42.4168 19.0167L42.4668 19.4C42.4668 19.6667 42.6334 19.9 42.8001 20.0667C43.0334 20.2333 43.1668 20.5 43.2001 20.7667C43.2668 21.1833 43.2834 21.5167 43.2834 21.85V22.2333C43.2834 22.3667 43.2834 22.5 43.3334 22.6333C43.3668 22.75 43.4501 22.8667 43.5501 22.9333L43.8834 23.1833C44.2168 23.4 44.4501 23.6833 44.5834 24.0667C44.7501 24.4333 44.8001 24.8167 44.8001 25.2V25.3333C44.8001 25.6333 44.7668 25.95 44.6668 26.2333C44.5834 26.5333 44.6001 26.8167 44.7168 27.0667C44.8501 27.3 44.9334 27.5667 44.9668 27.85C45.0334 28.1833 45.0001 28.5167 44.8834 28.7833L44.8501 28.9C44.7668 29.1 44.6334 29.2833 44.4668 29.4333C44.3001 29.6 44.1334 29.7 44.0334 29.8167C43.9334 29.9167 43.8668 30.0833 43.9168 30.2333L43.9668 30.4667C44.0501 30.8 44.0501 31.1333 43.9668 31.4333V31.5667C43.9001 31.8167 43.8001 32.0333 43.7001 32.2333C43.5834 32.45 43.4168 32.6167 43.2001 32.7333L42.9501 32.9C42.8334 32.9667 42.7501 33.1167 42.7501 33.2667C42.7501 33.4333 42.6834 33.6 42.5834 33.7L42.3334 34.0333C42.1668 34.25 41.9501 34.4333 41.7168 34.5333C41.4834 34.7 41.2834 34.8667 41.1334 35.0333C40.9668 35.2333 40.8334 35.4667 40.7668 35.7C40.7001 36 40.4668 36.1667 40.2168 36.1667H39.3168C39.0834 36.1667 38.8668 36.3333 38.7668 36.5333C38.6501 36.8 38.5334 36.9833 38.3834 37.15C38.2168 37.3167 38.1168 37.5167 38.0501 37.75C38.0168 37.95 37.8501 38.0833 37.6834 38.0167C37.4668 37.9167 37.2501 38.0167 37.1501 38.1833C36.9501 38.5167 36.7501 38.7667 36.5334 38.9833L36.4168 39.0833C36.2001 39.25 35.9168 39.3833 35.6668 39.3833C35.3668 39.3833 35.2168 39.5167 35.1668 39.7167C35.1168 39.8833 35.0834 40.1 35.0668 40.2833C35.0334 40.4833 34.9668 40.6667 34.9001 40.8333L34.8168 40.9333C34.6501 41.1833 34.5168 41.4333 34.3501 41.65L34.2834 41.75C34.0668 42.0333 33.7834 42.25 33.4501 42.3333C33.0501 42.4667 32.7001 42.5 32.3501 42.5H32.1168C31.9501 42.5 31.7834 42.6 31.6668 42.7667L31.5668 42.9333L31.4668 43.1333L31.2501 43.5C31.0834 43.8 30.8334 44 30.5001 44.1C30.1668 44.1833 29.7834 44.2167 29.4334 44.2L29.1668 44.1667C28.9334 44.1667 28.7168 44.1 28.5001 44C28.3334 43.9333 28.1001 44 28.0001 44.1667C27.8334 44.4 27.6334 44.5333 27.4168 44.6L26.9168 44.7667C26.5834 44.85 26.2168 44.85 25.8668 44.7667L25.6001 44.6833C25.4334 44.6833 25.2668 44.6 25.1334 44.5167C24.9668 44.4333 24.8001 44.4 24.6334 44.4167L24.4168 44.45C24.0834 44.4833 23.7834 44.45 23.4834 44.3667L23.0334 44.2667C22.8334 44.2 22.6501 44.0667 22.5334 43.8833C22.4501 43.7167 22.2668 43.5833 22.0334 43.55H21.5001C21.1668 43.5 20.8668 43.3833 20.6668 43.1333L20.0001 42.5L19.7668 42.3L19.4001 42.0333L19.1834 41.8667C18.9334 41.7 18.6334 41.5667 18.3168 41.5333L17.3168 41.3667C17.2168 41.3667 17.1501 41.3333 17.0501 41.3167L16.6668 41.2333C16.5001 41.2 16.3334 41.0667 16.2168 40.9C16.1168 40.7333 15.9334 40.6667 15.7668 40.7333C15.4334 40.8667 15.1668 40.9 14.9001 40.95H14.6668C14.2334 40.9833 13.8334 40.9167 13.4334 40.7333C13.0334 40.5667 12.7668 40.3167 12.5168 40C12.3168 39.7167 12.0168 39.5 11.6501 39.4333L11.1834 39.3333C10.8501 39.2667 10.5168 39.1333 10.2168 38.9333C9.88343 38.7 9.71676 38.4833 9.58343 38.2167C9.4501 37.9667 9.36676 37.6833 9.3501 37.3833V37.25C9.31676 36.9167 9.08343 36.6167 8.76676 36.5333C8.38343 36.4167 8.1001 36.25 7.8501 36.0333C7.61676 35.8167 7.48343 35.5 7.48343 35.1667L7.51676 34.4333C7.51676 34.15 7.43343 33.9 7.23343 33.7167C7.03343 33.5167 6.9001 33.2667 6.9001 33L6.8501 32.4C6.81676 31.9667 6.73343 31.5333 6.63343 31.1C6.53343 30.7167 6.68343 30.3333 7.0001 30.15L7.11676 30.0667C7.28343 29.95 7.3501 29.7333 7.2501 29.5333L7.11676 29.3667C6.9501 29.2 6.78343 29.0833 6.61676 29.0333C6.48343 29 6.4501 28.8667 6.4501 28.7833L6.61676 28.5833C6.71676 28.4667 6.7001 28.2833 6.61676 28.1833C6.48343 28.05 6.41676 27.8833 6.4001 27.7167L6.36676 26.55C6.36676 26.3167 6.4001 26.0833 6.46676 25.85C6.53343 25.65 6.46676 25.4167 6.26676 25.3167V25.3333ZM22.7668 23.1333C22.8834 23.0167 22.8668 22.8 22.7668 22.7167C22.6001 22.5833 22.4834 22.4333 22.3834 22.2667L22.2168 22C22.1001 21.7833 21.9501 21.6 21.7834 21.4333L21.7501 21.4C21.5834 21.2667 21.4668 21.1 21.3668 20.9C21.2834 20.7333 21.2834 20.5667 21.3668 20.4L21.4668 20.2333C21.5668 20.0667 21.6334 19.8333 21.6334 19.6333V19.5667C21.6334 19.4 21.5668 19.2333 21.4668 19.0667C21.4001 18.9333 21.3334 18.7667 21.3001 18.6V18.5C21.2501 18.3 21.3001 18.0833 21.4334 17.9167C21.5668 17.7 21.6668 17.5 21.7168 17.25V17.2167C21.7834 17.05 21.7501 16.8333 21.6501 16.6667C21.5501 16.5 21.5168 16.3333 21.5834 16.1333L21.7001 15.8C21.8001 15.5 21.9501 15.2333 22.1501 15L22.3834 14.75L22.5501 14.55L22.6501 14.45C22.7501 14.35 22.7668 14.1833 22.6834 14.05C22.6001 13.8833 22.5501 13.7167 22.5834 13.55L22.6168 13.3167C22.6668 12.9833 22.7834 12.65 23.0001 12.3833L23.0668 12.3167C23.3168 11.9833 23.6334 11.7667 24.0001 11.65L24.4501 11.4833C24.6501 11.4167 24.7834 11.2 24.7834 10.9833C24.7834 10.7167 24.8668 10.4833 25.0168 10.2667L25.1001 10.1833C25.2668 9.90001 25.4668 9.61668 25.6001 9.31668L25.7168 9.10001C25.7501 9.05001 25.7668 8.98334 25.7668 8.93334C25.7668 8.65001 25.6001 8.40001 25.3334 8.38334L24.6001 8.33334C24.1834 8.30001 23.7668 8.33334 23.3668 8.33334L21.9501 8.50001C21.7334 8.50001 21.5668 8.66668 21.5501 8.90001C21.5501 9.13334 21.3834 9.33334 21.1834 9.40001L20.5834 9.56668L20.4168 9.61668L19.9168 9.78334C19.5501 9.90001 19.2501 10.1667 19.0834 10.5333L18.9501 10.75C18.7834 11.1167 18.5001 11.4167 18.1501 11.6333C17.8168 11.85 17.6501 12.2 17.6168 12.6V12.7667C17.5834 13.1 17.4834 13.4333 17.2834 13.6667L17.2001 13.8C17.0668 13.9667 17.0334 14.1833 17.1168 14.3667C17.2001 14.5667 17.2501 14.7833 17.2334 15V15.8833C17.2334 16.1167 17.0668 16.3167 16.9001 16.3833C16.6668 16.4667 16.5168 16.65 16.4501 16.8833L16.3668 17.2167C16.3001 17.55 16.4168 17.8833 16.7001 18.0833C16.9668 18.2833 17.1334 18.5833 17.2001 18.95V19.25C17.2501 19.5833 17.4334 19.9167 17.7334 20.0833C18.0334 20.2833 18.2668 20.5833 18.4001 20.9167L18.4834 21.1833C18.6168 21.55 18.9168 21.7667 19.2501 21.8H19.3501C19.6501 21.8 19.9168 21.9667 20.0834 22.2333C20.2501 22.5 20.5168 22.6833 20.8168 22.7333L21.2834 22.8667C21.5668 22.95 21.8334 23.1 22.0501 23.3167L22.0834 23.35C22.2501 23.4833 22.5168 23.4667 22.6668 23.2833L22.7834 23.15L22.7668 23.1333ZM24.6668 21.6C24.8334 21.7 25.0001 21.65 25.0668 21.5L25.1168 21.4167C25.2334 21.1833 25.3834 20.95 25.5501 20.75L25.8834 20.25C25.9334 20.25 25.9501 20.2167 25.9668 20.1833L26.3668 19.65C26.5334 19.4833 26.7334 19.3667 26.9668 19.3667C27.1834 19.3667 27.3668 19.25 27.4668 19.0333C27.5334 18.8 27.6334 18.5833 27.8334 18.4L27.9168 18.3C28.0834 18.1333 28.2501 18.05 28.4168 17.9667C28.6334 17.9333 28.8334 17.9 29.0334 17.9H29.5334C29.7334 17.9 29.9001 17.8167 30.0001 17.65C30.1001 17.4833 30.2501 17.3667 30.4168 17.2833L30.5834 17.2167C30.8501 17.1 31.1501 17.0167 31.4501 16.9833L31.7834 16.95C31.9834 16.95 32.2001 16.95 32.4001 17.0667C32.5668 17.1833 32.7834 17.1667 32.9501 17.0333L33.0668 16.9667C33.3168 16.8 33.6001 16.6667 33.9001 16.6333H33.9334C34.2668 16.5667 34.5668 16.5667 34.9001 16.5833H35.0668C35.4001 16.6333 35.6834 16.75 35.9001 17L35.9501 17.0667C36.1168 17.2333 36.3834 17.3667 36.6168 17.3667H36.9001C36.9834 17.3667 37.0668 17.3333 37.1168 17.25C37.1668 17.2 37.2501 17.15 37.3334 17.15H37.5001C37.7334 17.15 37.9501 17.2167 38.1668 17.2833L38.4501 17.4C38.7168 17.4833 39.0001 17.5667 39.2834 17.6H39.4834C39.6168 17.6 39.7001 17.5167 39.7001 17.4C39.7001 17.2333 39.6668 17.0667 39.5834 16.9333L39.4668 16.6667C39.3334 16.45 39.2334 16.2167 39.1334 16L39.1001 15.9167C39.0168 15.75 39.0168 15.5833 39.1001 15.4167V15.3333C39.1334 15.2 39.0668 15.05 38.9334 15H38.8001C38.5334 14.9167 38.3001 14.7667 38.1334 14.55L37.9668 14.3833C37.8001 14.2167 37.7001 13.9667 37.6334 13.7167C37.5501 13.5 37.3668 13.3333 37.1334 13.3333H36.4334C36.1834 13.3 35.9668 13.1667 35.8168 12.9667L35.7501 12.8833C35.6334 12.7167 35.5334 12.5167 35.4668 12.3167C35.3834 12.15 35.2001 12.05 35.0334 12.1L34.8334 12.1667C34.5001 12.2833 34.1668 12.3333 33.8334 12.3L33.5668 12.2667C33.2834 12.2667 33.0168 12.15 32.8001 11.9833L32.6334 11.8667C32.5001 11.7667 32.3668 11.7 32.2168 11.6333C32.0501 11.5667 31.9168 11.6 31.8168 11.7167L31.7334 11.8167C31.5668 11.9833 31.3334 12.1167 31.1001 12.15L30.2001 12.2C30.0334 12.2 29.8668 12.2833 29.7501 12.4C29.6168 12.5167 29.4668 12.6 29.3001 12.6333H29.2668C29.1001 12.6333 28.9334 12.75 28.7668 12.8667V12.9C28.6001 13.0667 28.3834 13.15 28.1668 13.15L28.1001 13.1833C27.9001 13.1833 27.7001 13.1833 27.5001 13.2333H27.3001C27.0168 13.2833 26.8001 13.5167 26.7334 13.8167L26.6668 14.2C26.6168 14.4667 26.5001 14.7 26.3334 14.9167C26.1668 15.1167 25.9668 15.25 25.7168 15.25H25.4668H25.4334C25.2668 15.2833 25.1001 15.4667 25.1334 15.6667C25.1668 15.95 25.1334 16.2 25.0834 16.45L25.0168 16.7333C24.9501 16.9833 24.7834 17.1833 24.5668 17.2667L24.4668 17.3167H24.4334C24.3334 17.3833 24.2668 17.5333 24.3501 17.65C24.4501 17.8167 24.4834 17.9833 24.4668 18.15L24.4168 18.6833C24.4168 18.8833 24.3334 19.0667 24.2501 19.2333C24.1501 19.4 24.1501 19.5667 24.2168 19.7333L24.3834 20.1C24.4668 20.2667 24.4834 20.4333 24.4334 20.6333C24.3834 20.8 24.3501 20.9667 24.3668 21.1333C24.3668 21.3 24.4668 21.4667 24.6001 21.5333L24.6334 21.5667L24.6668 21.6ZM37.8334 33.65C38.0001 33.8167 38.2501 33.8833 38.4501 33.75L38.7834 33.5333C38.9501 33.4167 39.0834 33.25 39.1501 33.0333V33L39.3168 32.5L39.4168 32.3333L39.4834 32.1667L39.5501 32.05C39.6168 31.9167 39.7168 31.8167 39.8834 31.7667L39.9501 31.7333C40.0834 31.7 40.1668 31.5667 40.1668 31.4333C40.1668 31.2667 40.2501 31.1333 40.3334 31.0167L40.4668 30.9L40.8001 30.4667V30.4333C40.9001 30.3 40.9668 30.15 41.0001 29.9833C41.0334 29.8167 41.0001 29.65 40.9334 29.4833L40.9001 29.4167C40.8334 29.25 40.8001 29.1333 40.7834 28.9833L40.7334 28.5167L40.6834 28.0167C40.6834 27.85 40.7501 27.6833 40.8501 27.5167C40.9668 27.3833 41.0501 27.2167 41.1168 27.05V26.9833L41.1501 26.95C41.1834 26.7833 41.1001 26.6167 40.9501 26.6167C40.7834 26.5333 40.6168 26.4 40.5668 26.2L40.5168 26.1C40.4334 25.8 40.3834 25.5 40.3834 25.2L40.4168 24.3667V24.3167C40.4168 24.0333 40.1834 23.8167 39.9168 23.8167H39.8834C39.5501 23.8167 39.2834 23.7167 39.0501 23.4833L38.9168 23.3167L38.5834 22.9333L38.1501 22.4333C37.9834 22.2 37.8168 22 37.6001 21.8C37.4334 21.6333 37.1834 21.4667 36.9334 21.4333L36.6001 21.3833C36.4334 21.35 36.2168 21.2667 36.0334 21.15C35.9001 21.05 35.7001 21.0833 35.5668 21.2167L35.3501 21.45L35.2501 21.5167C35.1334 21.55 35.0168 21.4833 34.9668 21.35C34.9001 21.15 34.9001 20.9167 35.0001 20.7167V20.6167C35.0001 20.5 34.9001 20.4167 34.8001 20.45H34.5334C34.2334 20.45 33.9334 20.4167 33.6501 20.2833L33.4834 20.2167C33.3168 20.1333 33.1168 20.0833 32.9334 20.0833C32.7668 20.0833 32.6001 20.1167 32.4334 20.2167L32.3668 20.2667C32.1668 20.4 31.9334 20.4667 31.7001 20.4833H31.1501C30.9001 20.4833 30.6501 20.5667 30.4834 20.7C30.2668 20.8333 30.0334 20.9167 29.7834 20.9667L29.3334 21.0333C29.1334 21.0833 28.9168 21.1667 28.7334 21.3167C28.5668 21.4833 28.3334 21.5833 28.1168 21.65L28.0334 21.6833C27.7668 21.7667 27.5334 21.9333 27.3668 22.1833L27.1668 22.3833C27.0501 22.55 27.0501 22.75 27.1668 22.9167C27.2668 23.0833 27.4668 23.1333 27.6668 23.0833L27.9168 22.9833C28.0501 22.9333 28.2001 22.9833 28.3168 23.05C28.4168 23.1333 28.5668 23.1833 28.7168 23.1667L29.1334 23.1167C29.3668 23.1167 29.6001 23.1167 29.8334 23.1833C30.0834 23.2667 30.3001 23.35 30.5001 23.5167C30.7001 23.6833 30.9168 23.75 31.1668 23.7833C31.4168 23.8167 31.6668 23.8667 31.9001 23.95L32.0668 23.9833C32.2334 24.0333 32.3668 24.15 32.4668 24.3167C32.5501 24.45 32.6334 24.65 32.6334 24.8167V24.8667C32.6334 25.0667 32.8001 25.2 32.9668 25.2H33.0668C33.3334 25.2 33.6168 25.2333 33.9001 25.3167L34.0168 25.3667C34.1834 25.4333 34.3501 25.5333 34.4668 25.7C34.6001 25.8667 34.6834 26.0333 34.7334 26.2L34.7834 26.4333C34.8334 26.6833 34.8501 26.9333 34.8501 27.2V27.2833C34.8501 27.45 34.9668 27.6167 35.1501 27.6833C35.3168 27.7167 35.5168 27.7833 35.7001 27.8833L35.7834 27.9167C36.0001 28.05 36.2168 28.2167 36.3834 28.4167L36.4668 28.5333C36.6834 28.7833 36.8001 29.1 36.8001 29.4167V29.5333C36.8001 29.7833 36.7501 30.0333 36.6668 30.2667C36.6001 30.4667 36.6668 30.7 36.8834 30.7667L37.0001 30.85C37.2501 30.95 37.4668 31.1333 37.6334 31.35C37.8001 31.6 37.8668 31.8833 37.8668 32.1833V32.6833C37.8334 32.85 37.7834 32.9833 37.7001 33.1C37.6168 33.2167 37.6168 33.3833 37.7001 33.5L37.8001 33.6667L37.8334 33.65ZM27.1668 25.1167H27.1334C27.0668 25.1167 27.0334 25.2 27.0501 25.2833L27.1168 25.6167C27.1834 25.8833 27.2168 26.15 27.2501 26.4167C27.2834 26.6833 27.4168 26.9167 27.6168 27.0833H27.6834C27.9334 27.2833 28.0834 27.5833 28.1001 27.8833V28.7167C28.0668 28.8833 28.1001 29.05 28.2001 29.1833L28.2834 29.2667C28.4501 29.4667 28.5168 29.7 28.5334 29.9333L28.5834 30.85C28.5834 31.0667 28.4501 31.25 28.2501 31.2833L28.0834 31.3167C27.9668 31.3167 27.9168 31.45 27.9168 31.5667C27.9168 31.7 27.9668 31.85 28.0168 31.9833V32.0167C28.0668 32.1833 28.0834 32.35 28.0668 32.5167L28.0001 32.9667C27.9334 33.3 27.8334 33.6 27.6668 33.9L27.5501 34.1C27.4668 34.2667 27.3501 34.3667 27.2168 34.4333C27.0501 34.5 26.9334 34.6333 26.8834 34.8L26.7501 35.4C26.6668 35.7333 26.5168 36.0667 26.3168 36.4H26.2834C26.0834 36.6667 25.8334 36.9 25.5334 37.0667L25.3334 37.2L24.8334 37.45C24.6668 37.5167 24.5668 37.6667 24.5334 37.85L24.4501 38.4C24.4001 38.7333 24.2834 39.0167 24.0501 39.2333L23.8334 39.4833L23.5834 39.7333L23.3334 40C23.1334 40.2333 22.8334 40.3333 22.5001 40.2833L21.9001 40.1667L21.3501 40.1H21.2001C21.1334 40.1667 21.1168 40.2667 21.1668 40.3667C21.2834 40.5667 21.4668 40.7 21.6668 40.7L22.0334 40.7667C22.2001 40.7667 22.4001 40.85 22.5668 40.9333C22.7334 41.05 22.9001 41.1333 23.1001 41.1833H23.1334C23.3501 41.2667 23.5834 41.2833 23.8001 41.2667L24.0501 41.2333C24.3334 41.2 24.6001 41.2333 24.8334 41.3333L25.0334 41.4C25.1168 41.4333 25.2501 41.4 25.3334 41.3167C25.4334 41.2167 25.5334 41.15 25.6668 41.1L25.8001 41.0667C26.0168 41 26.2334 40.9667 26.4668 40.9667H26.6001C26.8001 40.9667 26.9834 41 27.1501 41.1L27.2168 41.1333C27.3334 41.1833 27.4668 41.1333 27.5501 41.0333C27.6001 40.9167 27.7168 40.8 27.8334 40.7L28.2501 40.4167L28.5168 40.25L28.6501 40.1667C28.8168 40.05 29.0501 40 29.2501 40L29.8501 39.95C30.0834 39.9167 30.2834 39.75 30.3501 39.5167C30.4168 39.2667 30.5168 39.0167 30.6834 38.8C30.8501 38.5833 31.0168 38.4 31.1834 38.2333C31.4001 38.0667 31.6168 37.9833 31.8501 37.9667H31.9834C32.2501 37.9167 32.4501 37.6667 32.4334 37.4V37.3667V36.2833C32.4668 36.1167 32.5334 35.9 32.6334 35.7333L32.9668 35.2333L33.1001 35.0667C33.2001 34.9833 33.2668 34.8667 33.3834 34.7333L33.5501 34.5167C33.6501 34.35 33.6501 34.1333 33.5168 33.9833C33.3501 33.8167 33.2668 33.5833 33.2334 33.35V33.2833C33.2001 33.0167 33.2001 32.7333 33.2834 32.45V32.3667C33.3668 32.15 33.4834 31.9333 33.6168 31.7333C33.7501 31.5667 33.7334 31.3333 33.5668 31.2L33.2834 30.95C33.0501 30.75 32.9168 30.45 32.8834 30.15L32.8501 29.8167C32.8501 29.7167 32.8501 29.6 32.8168 29.4833L32.7834 29.2333C32.7501 28.95 32.5834 28.7333 32.3501 28.5667L32.2334 28.5333C32.0668 28.4333 31.9001 28.2833 31.7668 28.0833C31.6334 27.9167 31.5668 27.6833 31.5168 27.45L31.4668 27.1667C31.4668 27.0667 31.4001 27 31.3001 26.95L31.0334 26.8667L30.5001 26.7C30.3334 26.6667 30.1668 26.5333 30.0501 26.4167H30.0168C29.9168 26.2833 29.7501 26.2833 29.6501 26.3833L29.4834 26.55C29.4501 26.6 29.4168 26.6167 29.3668 26.6C29.2668 26.6 29.2001 26.5167 29.2334 26.4333C29.2668 26.1667 29.1668 25.9 28.9501 25.7333L28.7334 25.5667L28.2334 25.2333C28.1001 25.1833 27.9001 25.2333 27.8334 25.4L27.7668 25.5C27.7668 25.5333 27.7168 25.55 27.7001 25.5667C27.6334 25.5667 27.5334 25.5667 27.5334 25.4833L27.4834 25.4C27.4334 25.3 27.3168 25.2333 27.2168 25.2L27.1668 25.1167ZM25.1668 26.7833L25.0834 26.7C25.0001 26.6333 24.9168 26.65 24.8334 26.7333C24.7168 26.9333 24.6168 27.15 24.5668 27.3667V27.4C24.5168 27.6167 24.3168 27.7667 24.1168 27.7333H23.9501H23.9168C23.6834 27.7333 23.5001 27.9333 23.5001 28.1667C23.5001 28.4667 23.4001 28.7667 23.2168 29L23.1168 29.1C22.9501 29.3167 22.7001 29.4667 22.4501 29.55L22.3168 29.5833C22.1501 29.6333 22.0168 29.75 21.9834 29.95C21.9834 30.1167 21.8834 30.2833 21.7501 30.4167L21.5834 30.55C21.3834 30.7667 21.0834 30.8833 20.7834 30.9167L19.9501 31C19.6834 31 19.4501 31.1667 19.2834 31.4167C19.1168 31.6667 18.8668 31.8333 18.6168 31.8667L18.2501 31.9C17.9834 31.9333 17.7001 31.9333 17.4168 31.8667L17.2501 31.8333L16.8001 31.7167C16.6334 31.6667 16.5001 31.7167 16.4001 31.8333L16.2334 32.05C16.0168 32.3 15.7001 32.4167 15.4001 32.3833L14.3168 32.25C14.1501 32.25 14.0168 32.1667 13.8668 32.0833C13.7001 31.9833 13.5834 31.8667 13.4668 31.75L13.0501 31.25C13.0001 31.2167 12.9168 31.2 12.8334 31.2167L12.6001 31.3167L11.6668 31.55C11.5001 31.6 11.2834 31.55 11.1168 31.45C10.9501 31.3167 10.7501 31.2833 10.5501 31.2833H10.3334C10.1334 31.3333 10.0001 31.55 10.0668 31.75L10.1334 32.0833C10.1834 32.25 10.1668 32.45 10.0834 32.6167C10.0001 32.7833 10.0168 32.95 10.1334 33.1167L10.2334 33.25C10.3668 33.45 10.5668 33.6167 10.7334 33.7833C10.9001 33.95 11.0668 34.1167 11.2001 34.3333L11.4501 34.7833C11.5834 35.0167 11.7834 35.15 12.0501 35.15C12.3001 35.15 12.5501 35.2333 12.7501 35.4L13.2501 35.8667C13.3834 35.9833 13.5834 36 13.7168 35.9L13.8001 35.8667C13.9001 35.8667 13.9668 35.9333 13.9668 36.0333V36.1167C13.9668 36.3333 14.1334 36.5333 14.3501 36.6167L15.1001 36.7833C15.3668 36.8667 15.6334 36.95 15.8834 37.1167H16.0168C16.1501 37.1167 16.2668 37 16.2501 36.85V36.2667C16.2501 36.1 16.3168 35.9333 16.4501 35.8667L16.5334 35.8333C16.6168 35.8667 16.7001 35.9333 16.6668 36V36.2833C16.6668 36.5 16.7334 36.7 16.8834 36.85C17.0501 37.0167 17.2668 37.05 17.4501 36.9833C17.6501 36.9 17.8501 36.8833 18.0668 36.9L18.6834 36.9333C18.9834 36.9667 19.2668 36.9333 19.5168 36.8167C19.8168 36.7167 20.0668 36.5833 20.3001 36.4L20.4001 36.3333L20.9001 35.8833C21.0668 35.7167 21.2834 35.6333 21.4834 35.6333H22.1501C22.4834 35.6 22.7834 35.3 22.8168 34.9667L22.8834 34.6333C22.8834 34.4167 22.9834 34.2167 23.1334 34.05C23.3001 33.8833 23.4668 33.7833 23.6334 33.7167L23.8334 33.6333C24.1168 33.5167 24.3334 33.2667 24.4334 32.9667L24.5334 32.5667C24.6168 32.2333 24.7834 31.9 25.0334 31.6833L25.0668 31.65C25.2668 31.4833 25.3001 31.15 25.1668 30.9167L25.1168 30.8C25.0001 30.6333 24.9834 30.3833 25.0668 30.1667C25.1501 29.9333 25.2334 29.7333 25.3668 29.5333L25.5334 29.3C25.6001 29.1667 25.6001 28.9667 25.5001 28.85C25.4001 28.7167 25.3334 28.55 25.3334 28.3833L25.3001 28.15V27.5833C25.3334 27.4167 25.3001 27.2 25.2501 27.0333L25.1834 26.8333L25.1668 26.7833ZM22.7834 25.5167V25.4667C22.7834 25.3 22.6834 25.2 22.5501 25.2H22.1168C21.9501 25.2333 21.7834 25.2333 21.6501 25.2H20.9001C20.5168 25.2 20.1501 25.1333 19.7834 25.0333L19.3834 24.9333L19.0501 24.8333L18.3001 24.5833C17.9001 24.4667 17.6001 24.2 17.4168 23.8333L17.3334 23.6667C17.2168 23.4167 16.9668 23.2833 16.7168 23.3333C16.4334 23.3333 16.1501 23.3333 15.8834 23.2L15.6834 23.1167C15.3001 22.95 15.0168 22.6167 15.0168 22.1667L14.9501 21.7167C14.9001 21.4833 14.7501 21.2667 14.5501 21.1833C14.3168 21.0833 14.1001 20.95 13.8834 20.8L13.8001 20.75C13.5501 20.55 13.3334 20.2833 13.2168 19.9667L13.1834 19.8667C13.1001 19.6 13.0834 19.3167 13.1501 19.0333L13.1834 18.9333C13.2501 18.7167 13.2668 18.5 13.2668 18.2667C13.2668 18.0667 13.1834 17.8667 13.0334 17.7167L12.8001 17.5C12.5334 17.2833 12.3668 16.9667 12.3501 16.6167C12.3168 16.25 12.3168 15.9 12.3834 15.55V15.5V15.45C12.3834 15.25 12.2168 15.1167 12.0501 15.1167H12.0001C11.7834 15.1167 11.6001 15.25 11.5001 15.45C11.4168 15.6833 11.2834 15.8667 11.1334 16.05L11.0668 16.1333L10.7334 16.4667L10.5668 16.6333C10.4001 16.8 10.3001 17.05 10.2668 17.3C10.2334 17.55 10.1668 17.8 10.0668 18.0333L10.0334 18.1167C9.9501 18.3167 9.81676 18.5 9.6501 18.6167C9.48343 18.75 9.36676 18.95 9.36676 19.15L9.33343 19.9167C9.33343 20.25 9.28343 20.5833 9.16676 20.9167L9.13343 21.05C9.0501 21.2667 9.13343 21.5 9.33343 21.6L10.0334 21.9L10.1001 21.9333C10.1501 21.9333 10.1668 21.9667 10.1834 22.0167C10.2334 22.0833 10.1834 22.1833 10.1334 22.1833L9.96676 22.2667C9.86676 22.3 9.8001 22.4 9.76676 22.5167L9.73343 22.6833V22.7167L9.56676 23.65C9.53343 23.7833 9.53343 23.9333 9.53343 24.0833C9.53343 24.2167 9.61676 24.3333 9.73343 24.3833L10.1001 24.55C10.2668 24.65 10.4668 24.7667 10.6001 24.8833L10.7668 25.0167C10.8168 25.0833 10.9001 25.15 10.9668 25.1833L11.0334 25.25C11.1501 25.35 11.2334 25.4833 11.2668 25.6333L11.4334 26.3833C11.4334 26.5833 11.6001 26.75 11.7668 26.8L12.0334 26.8833C12.0334 26.8833 12.0834 26.8833 12.1168 26.9167L12.4501 27.0167C12.7168 27.1 12.9501 27.25 13.1501 27.45C13.3501 27.6167 13.5501 27.8333 13.7168 28.0667L13.7834 28.1333C13.9168 28.3 14.1168 28.3833 14.3168 28.3333C14.5168 28.2833 14.7334 28.2667 14.9501 28.2667H15.2001C15.3668 28.2667 15.5834 28.3167 15.7668 28.4333C15.9334 28.5333 16.1501 28.6 16.3501 28.6833H16.4001C16.6001 28.7667 16.8168 28.7333 16.9834 28.6167C17.1501 28.4833 17.3668 28.4167 17.5834 28.4167L18.3668 28.4667C18.5334 28.4667 18.7001 28.4333 18.7834 28.3H18.8168L19.1001 28.0333L19.1834 27.95C19.3168 27.7833 19.5168 27.7167 19.7168 27.7H20.4668C20.6668 27.7 20.8501 27.5333 20.9334 27.3667C21.0168 27.2 21.1834 27.0667 21.3834 27.0333L21.7168 26.9667C21.8501 26.9667 21.9668 26.85 22.0168 26.7C22.0668 26.5333 22.1501 26.4 22.2668 26.3L22.5334 26.0333C22.7001 25.8667 22.7834 25.7 22.8168 25.5L22.7834 25.5167Z" fill="white" stroke="white" stroke-width="0.3"/>
</g>
<defs>
<clipPath id="clip0_829_4">
<rect width="40" height="40" fill="white" transform="translate(5 5)"/>
</clipPath>
</defs>
</svg>
