<svg width="60" height="60" viewBox="0 0 60 60" fill="none" xmlns="http://www.w3.org/2000/svg">
<g clip-path="url(#clip0_791_58)">
<path d="M30 0C46.5685 0 60 13.4315 60 30C60 46.5685 46.5685 60 30 60C13.4315 60 0 46.5685 0 30C0 13.4315 13.4315 0 30 0ZM37.7875 11.25H22.2125C15.8285 11.25 11.51 15.381 11.2612 21.638L11.25 22.2128V37.7118C11.25 40.9627 12.3085 43.76 14.4255 45.8015C16.321 47.6265 18.803 48.6045 21.63 48.735L22.2882 48.75H37.7118C40.9627 48.75 43.6842 47.6915 45.6502 45.8015C47.5552 43.9665 48.6045 41.4075 48.736 38.4315L48.75 37.7873V22.2128C48.75 19.0373 47.6915 16.3155 45.7257 14.3498C43.8913 12.4447 41.332 11.3955 38.4173 11.264L37.7873 11.25H37.7875ZM22.288 14.7277H37.8627C40.1307 14.7277 42.021 15.4082 43.3817 16.7692C44.56 18.0168 45.2935 19.7087 45.4075 21.671L45.4232 22.2128V37.7873C45.4232 40.131 44.5915 42.0212 43.2307 43.3065C41.9832 44.4847 40.2907 45.1545 38.2708 45.258L37.7115 45.2723H22.2882C20.0203 45.2723 18.13 44.5917 16.7692 43.3065C15.5217 42.059 14.846 40.3667 14.742 38.2882L14.7277 37.7118V22.2125C14.7277 19.9443 15.4082 18.0543 16.7692 16.6933C17.9473 15.515 19.6973 14.8453 21.7278 14.7417L22.2882 14.7275H37.863H22.2882L22.288 14.7277ZM30 20.247C24.7075 20.247 20.3225 24.5565 20.3225 29.9245C20.3186 31.1965 20.5662 32.4567 21.0512 33.6326C21.5361 34.8085 22.2488 35.8769 23.1482 36.7763C24.0476 37.6757 25.116 38.3884 26.2919 38.8733C27.4678 39.3583 28.728 39.6059 30 39.602C35.368 39.602 39.6775 35.2168 39.6775 29.9245C39.6775 24.632 35.2925 20.247 30 20.247ZM30 23.7247C33.4022 23.7247 36.1995 26.5222 36.1995 29.9245C36.1995 33.3265 33.402 36.124 30 36.124C26.5977 36.124 23.8005 33.3265 23.8005 29.9245C23.8005 26.522 26.598 23.7247 30 23.7247ZM40.0555 17.8275C39.474 17.8275 38.9163 18.0585 38.5052 18.4697C38.094 18.8808 37.863 19.4385 37.863 20.02C37.863 20.6015 38.094 21.1592 38.5052 21.5703C38.9163 21.9815 39.474 22.2125 40.0555 22.2125C40.637 22.2125 41.1947 21.9815 41.6058 21.5703C42.017 21.1592 42.248 20.6015 42.248 20.02C42.248 19.4385 42.017 18.8808 41.6058 18.4697C41.1947 18.0585 40.637 17.8275 40.0555 17.8275Z" fill="white"/>
</g>
<defs>
<clipPath id="clip0_791_58">
<rect width="60" height="60" fill="white"/>
</clipPath>
</defs>
</svg>
