<svg width="50" height="50" viewBox="0 0 50 50" fill="none" xmlns="http://www.w3.org/2000/svg">
<rect width="50" height="50" rx="25" fill="#8525CF"/>
<g clip-path="url(#clip0_829_3)">
<path d="M25 5C36.045 5 45 13.955 45 25C45 36.045 36.045 45 25 45C13.955 45 5 36.045 5 25C5 13.955 13.955 5 25 5ZM19.9183 20.6733H15.275V34.1667H19.9167V20.6733H19.9183ZM31.32 20.3533C29.1133 20.3533 27.9983 21.4017 27.345 22.28L27.1333 22.5817V20.6717H22.49L22.5067 21.4783C22.5167 22.5383 22.5183 24.3917 22.515 26.3617L22.49 34.1667H27.1333V26.63C27.1333 26.2267 27.1633 25.8233 27.2867 25.535C27.6233 24.73 28.3867 23.895 29.67 23.895C31.2617 23.895 31.9483 25.005 32.0167 26.665L32.0217 26.945V34.1667H36.6667V26.4283C36.6667 22.2833 34.375 20.3533 31.32 20.3533ZM17.6267 14.1667C16.0383 14.1667 15 15.175 15 16.4983C15 17.715 15.8933 18.7067 17.2967 18.8183L17.5967 18.8283C19.215 18.8283 20.225 17.7933 20.225 16.4983C20.1933 15.175 19.2167 14.1667 17.6267 14.1667Z" fill="white"/>
</g>
<defs>
<clipPath id="clip0_829_3">
<rect width="40" height="40" fill="white" transform="translate(5 5)"/>
</clipPath>
</defs>
</svg>
