<svg width="179" height="323" viewBox="0 0 179 323" fill="none" xmlns="http://www.w3.org/2000/svg">
<path d="M110.55 185.28L96.25 182.58L99.53 173.57L108.93 156.04L118.66 155.1L124.86 165.12L110.55 185.28Z" fill="#474747"/>
<path d="M97.3398 124.11L118.66 155.1L106.84 177.94V168.22L109.75 155.26L104.68 146.3L97.3398 124.11Z" fill="#8F8F8F"/>
<path opacity="0.1" d="M8 293.27L96.2259 263L179 296.007L95.7001 323L8 293.27Z" fill="#2B2B2B"/>
<path d="M62.2499 274.73L57.4399 285.15L60.95 294.38L62.2499 274.73Z" fill="#474747"/>
<path d="M76.17 279.32L74.1199 273.01L62.2499 274.73L61.1099 287.42L60.95 290.61L74.3399 287.42L77.3599 282.73L76.17 279.32Z" fill="#C3987B"/>
<path d="M60.95 290.61L77.3599 282.73L82.4899 290.61L74.45 292.17L60.95 290.61Z" fill="#6F7173"/>
<path d="M60.95 290.61V294.38H82.4899V290.61H60.95Z" fill="#474747"/>
<path d="M65.81 229.17L61.76 275.65L75.1 275.98L77.36 226.31L65.81 229.17Z" fill="#4A1C78"/>
<path d="M108.86 290.01L105.78 289.91L103.79 277.7L106.7 269.34L113.02 274.25L111.4 279.11L108.86 290.01Z" fill="#474747"/>
<path d="M123.82 275.01L120.77 269.21L106.7 269.34L113.77 283.21L115.5 285.43L123.33 283.1L125.63 277.94L123.82 275.01Z" fill="#C3987B"/>
<path d="M115.5 286.18L125.63 277.94L135.04 286.18L124.68 287.75L115.5 286.18Z" fill="#6F7173"/>
<path d="M111.5 278.79L109.78 280.62L109.56 284.72L118.09 290.12H135.04V286.18H120.95L111.5 278.79Z" fill="#474747"/>
<path d="M113.32 20.3L81.14 28.29L52.2 38.87L54.58 52.15L62.19 67.7L58.84 67.54L56.47 71.48L52.74 64.51L49.72 61.49L44.92 63.81L39.73 69.64L41.25 73.2L45.51 78.17L49.34 83.79L64.68 117.85L91.67 123.03L91.45 107.38L93.94 96.96L105.54 92.69L122.82 87.67L120.98 55.44L113.32 20.3Z" fill="#DFBDA5"/>
<path d="M78.7602 61.27L83.5201 50.1L96.2002 49.78L103.71 68.62L98.0901 42.92L84.9702 43.67L77.1501 49.78L73.9102 55.44L78.7602 61.27Z" fill="#C3987B"/>
<path d="M117.74 40.54L109.27 46.7L108.73 58.03L100.95 40.44L117.74 40.54Z" fill="#C3987B"/>
<path d="M75.74 66.46L102.57 65.65L102.25 61.87L75.74 66.46Z" fill="#C3987B"/>
<path d="M121.04 56.63L110.13 63.97L109.16 59.98L121.04 56.63Z" fill="#C3987B"/>
<path d="M60.7899 36.28L72.3398 46.32L75.7398 66.46L78.0598 96.74L91.6699 123.03L79.1999 121.9L64.6798 117.85L49.3398 83.79L57.7599 78.82L56.4698 71.48L62.1898 67.7L52.1999 38.87L60.7899 36.28Z" fill="#C3987B"/>
<path d="M49.3398 83.79L57.7599 78.82L55.2299 96.8L49.3398 83.79Z" fill="#8B6651"/>
<path d="M122.82 87.67L70.24 97.98L83.89 121.52L87.13 123.57L91.67 123.03L93.94 96.96L122.82 87.67Z" fill="#8B6651"/>
<path d="M77.1499 39.14L85.7799 44.05L97.7099 40.92L77.1499 39.14Z" fill="#2B2B2B"/>
<path d="M102.25 36.01L108.51 28.99L113.8 30.12L102.25 36.01Z" fill="#2B2B2B"/>
<path d="M97.71 40.92L103.71 68.62L111 67.54L104.25 39.95L97.71 40.92Z" fill="#E8CAB6"/>
<path d="M103.71 68.62L107.59 72.5L111 67.54L103.71 68.62Z" fill="#8B6651"/>
<path d="M83.03 77.36L99.28 77.25L107.27 80.6L97.01 81.09L90.8 80.49L89.13 80.22L87.13 78.98L83.03 77.36Z" fill="#8A278C"/>
<path d="M86.9199 78.93L90.9699 83.35L107.27 80.6L90.7999 80.49L86.9199 78.93Z" fill="#993ABA"/>
<path d="M45.0801 71.69L48.8001 67.92L52.7401 73.8L45.0801 71.69Z" fill="#8B6651"/>
<path d="M113.32 20.3L83.25 0L84.22 15.28L88.43 27.86L113.32 20.3Z" fill="#474747"/>
<path d="M45.5201 154.53L53.6201 178.34L48.8101 182.75L43.2301 183.46L27.5801 169.55L45.5201 154.53Z" fill="#474747"/>
<path d="M43.23 183.46L51.9 201.29L58.49 199.07L69.63 190.52L53.62 178.34L43.23 183.46Z" fill="#DFBDA5"/>
<path d="M68.1299 189.6L51.8999 201.29L59.2299 207.15L68.1299 189.6Z" fill="#8B6651"/>
<path d="M98.8999 195.91L100.09 203.88L103.99 202.99L104.6 197.92L102.22 195.81L98.8999 195.91Z" fill="#C3987B"/>
<path d="M83.25 0L34.33 16.73L30.77 25.27L30.99 32.44L41.35 36.71L52.2 38.87L60.79 36.28L88.43 27.86L83.25 0Z" fill="#6F7173"/>
<path d="M30.9901 32.44L28.9401 37.63L29.4801 41.62L25.6401 64.51L42.5901 61.81L58.0901 55.93L52.2001 38.87L30.9901 32.44Z" fill="#474747"/>
<path d="M98.9001 195.91L94.8701 182.33L99.5301 173.57L105.4 175.07L107.37 186.1L98.9001 195.91Z" fill="#8B6651"/>
<path d="M111.94 200.46L113.79 186.93L105.4 175.07L98.8999 195.91L111.94 200.46Z" fill="#DFBDA5"/>
<path d="M25.6401 64.51L58.0901 55.93L62.1901 67.7L56.4701 71.48L49.7201 61.49L39.7301 69.64L45.5101 78.17L25.6401 64.51Z" fill="#2B2B2B"/>
<path d="M29.4201 41.73L13.3301 40.27L21.4301 29.64L34.3301 16.73L30.9901 32.44L29.4201 41.73Z" fill="#2B2B2B"/>
<path d="M34.33 16.73L14.25 6.26001L0 54.53L13.33 40.27L34.33 16.73Z" fill="#6F7173"/>
<path d="M64.6801 117.85L97.3401 124.11L93.9901 132.1L86.8101 141.39L69.1001 132.59L58.1401 121.79L64.6801 117.85Z" fill="#474747"/>
<path d="M58.14 121.79L47.24 127.35L51.61 142.58L58.79 158.02L65 160.5L87.08 162.77L109.75 155.26L97.34 124.11L86.81 141.39L58.14 121.79Z" fill="#AF72CC"/>
<path d="M58.79 158.02L109.75 155.26L104.68 191.76L88.11 192.68L68.13 189.6L58.79 158.02Z" fill="#4A1C78"/>
<path d="M68.1299 189.6L85.0799 209.84L95.3899 216.43L104.19 208.22L104.68 191.76L68.1299 189.6Z" fill="#AF72CC"/>
<path d="M68.13 189.6L95.39 216.43L98.36 247.2L75.1 275.98L55.5 211.63L68.13 189.6Z" fill="#773696"/>
<path d="M104.68 191.76L113.69 234.46L106.14 229.87L95.3901 216.43L104.68 191.76Z" fill="#6750AA"/>
<path d="M95.3901 216.43L113.69 234.46L120.77 269.21L75.1001 275.98L95.3901 216.43Z" fill="#4A1C78"/>
<path d="M47.2401 127.35L27.5801 169.55L58.7401 157.91L47.2401 127.35Z" fill="#8F8F8F"/>
<path d="M117.16 47.27C117.166 47.8198 117.009 48.359 116.708 48.8194C116.407 49.2798 115.977 49.6408 115.472 49.8566C114.966 50.0725 114.408 50.1336 113.867 50.0321C113.327 49.9307 112.829 49.6713 112.436 49.2867C112.043 48.9021 111.773 48.4097 111.66 47.8716C111.546 47.3336 111.595 46.774 111.8 46.2638C112.005 45.7536 112.357 45.3156 112.811 45.0052C113.264 44.6948 113.8 44.526 114.35 44.52C114.715 44.5147 115.078 44.5818 115.418 44.7174C115.757 44.853 116.066 45.0544 116.327 45.31C116.589 45.5656 116.797 45.8704 116.94 46.2068C117.082 46.5432 117.157 46.9045 117.16 47.27Z" fill="#2B2B2B"/>
<path d="M91.6899 53.66C91.6919 54.2063 91.5317 54.7409 91.2296 55.1961C90.9276 55.6513 90.4972 56.0066 89.9931 56.2171C89.4889 56.4275 88.9337 56.4836 88.3976 56.3782C87.8616 56.2728 87.3688 56.0108 86.9818 55.6252C86.5948 55.2396 86.331 54.7478 86.2237 54.2122C86.1164 53.6765 86.1705 53.1211 86.3791 52.6161C86.5877 52.1112 86.9414 51.6796 87.3955 51.3759C87.8496 51.0722 88.3836 50.91 88.9299 50.91C89.6586 50.9152 90.3561 51.2063 90.8723 51.7206C91.3884 52.235 91.6821 52.9314 91.6899 53.66Z" fill="#2B2B2B"/>
<path d="M127.78 33.47L72.3398 46.32L75.7398 66.46L102.25 61.87L98.5798 44.87L105.1 43.41L109.16 60L131.67 53.68L127.78 33.47ZM77.1498 49.78L94.9199 45.78L97.5699 58L78.7698 61.24L77.1498 49.78ZM111.62 55L108.34 43L124.44 38.88L126.54 50.27L111.62 55Z" fill="#7A31A6"/>
</svg>
